<svg xmlns="http://www.w3.org/2000/svg" width="21" height="32" viewBox="0 0 512 512"><style>.st0{fill:#1e7bc3}</style><path class="st0" d="M356.6 287.4h-30c-33.1 0-60.1-27-60.1-60.1v-2c0-16.6 13.5-30 30-30h60.1c11 0 20 9 20 20v52.1c0 11-9 20-20 20zm-60.1-72.2c-5.5 0-10 4.5-10 10v2c0 22.1 18 40.1 40.1 40.1h30v-52.1h-60.1zm-111.2 72.2h-30c-11 0-20-9-20-20v-52.1c0-11 9-20 20-20h60.1c16.6 0 30 13.5 30 30v2c0 33.1-27 60.1-60.1 60.1zm-30-72.2v52.1h30c22.1 0 40.1-18 40.1-40.1v-2c0-5.5-4.5-10-10-10h-60.1z"/><path class="st0" d="M456.3 176.2h-30v-.7c0-69-50.7-127.5-120.2-146.8V10c0-5.5-4.5-10-10-10H216c-5.5 0-10 4.5-10 10v18.7C136.4 48 85.7 106.5 85.7 175.5v.7h-30c-5.5 0-10 4.5-10 10v70.1c0 5.5 4.5 10 10 10h30c0 42.5 15 85.9 33.1 123.9 18.9 39.8 45.1 80.5 82.8 105 77.6 50.3 147.7-22.5 183-88.2 22.7-42.2 41.6-92.2 41.6-140.7h30c5.5 0 10-4.5 10-10v-70.1c.1-5.5-4.4-10-9.9-10zM85.7 246.3h-20v-50.1h20v50.1zM226 20h60v50.1h-60V20zm180.2 246.4c0 63.9-33.3 136-74.7 183.4-19.1 21.8-45 43-75.5 42.9-45.5 0-80.4-44.1-101.9-79.3-26.2-42.7-48.3-96.2-48.3-147.1v-90.9c0-59.6 45.2-108.5 100.2-125.9v30.6c0 5.5 4.5 10 10 10h80.1c5.5 0 10-4.5 10-10V49.6C361 67 406.3 115.9 406.3 175.5v90.9zm40.1-20.1h-20v-50.1h20v50.1z"/><path class="st0" d="M256 187.2c-12.9 0-12.9-20 0-20s12.9 20 0 20zm20-40.1c-12.9 0-12.9-20 0-20s12.9 20 0 20zm-40 0c-12.9 0-12.9-20 0-20 12.8 0 12.9 20 0 20zm40 310.6c-12.9 0-12.9-20 0-20 12.9-.1 12.9 20 0 20zm-40 0c-12.9 0-12.9-20 0-20 12.8-.1 12.9 20 0 20zm40-40.1c-12.9 0-12.9-20 0-20s12.9 20 0 20zm-40 0c-12.9 0-12.9-20 0-20 12.8 0 12.9 20 0 20zm40-40.1c-12.9 0-12.9-20 0-20s12.9 20 0 20zm-40 0c-12.9 0-12.9-20 0-20 12.8 0 12.9 20 0 20zm40-40c-12.9 0-12.9-20 0-20 12.9-.1 12.9 20 0 20zm-40 0c-12.9 0-12.9-20 0-20 12.8-.1 12.9 20 0 20zm-40.1 20c-12.9 0-12.9-20 0-20s12.9 20 0 20zm-20 40.1c-12.9 0-12.9-20 0-20 12.9-.1 12.9 20 0 20zm140.2-40.1c-12.9 0-12.9-20 0-20s12.9 20 0 20zm20 40.1c-12.9 0-12.9-20 0-20 12.9-.1 12.9 20 0 20z"/></svg>