<svg width="13" height="11" viewBox="0 0 13 11" fill="none" xmlns="http://www.w3.org/2000/svg"><path d="M13 1.247a5.333 5.333 0 0 1-1.531.42c.55-.33.972-.852 1.172-1.472a5.381 5.381 0 0 1-1.695.646A2.661 2.661 0 0 0 9 0a2.665 2.665 0 0 0-2.598 3.269A7.575 7.575 0 0 1 .906.487 2.66 2.66 0 0 0 1.73 4.04a2.67 2.67 0 0 1-1.208-.334v.033c0 1.29.92 2.366 2.139 2.61-.223.06-.459.094-.703.094-.172 0-.338-.017-.502-.05a2.668 2.668 0 0 0 2.491 1.85A5.356 5.356 0 0 1 .636 9.382 5.57 5.57 0 0 1 0 9.345a7.547 7.547 0 0 0 4.088 1.198c4.906 0 7.587-4.057 7.587-7.575l-.009-.345A5.32 5.32 0 0 0 13 1.247z" fill="#fff"/></svg>