<svg width="14" height="8" viewBox="0 0 14 8" fill="none" xmlns="http://www.w3.org/2000/svg"><path d="M13.875 7.108c-.037-.063-.27-.567-1.39-1.605-1.173-1.086-1.015-.91.397-2.787.86-1.144 1.204-1.842 1.097-2.14-.103-.285-.736-.21-.736-.21L11.14.378s-.156-.02-.272.048a.591.591 0 0 0-.186.225s-.333.886-.778 1.638c-.937 1.588-1.312 1.672-1.466 1.573-.356-.23-.266-.923-.266-1.416 0-1.539.233-2.18-.456-2.346-.23-.055-.398-.092-.983-.098-.75-.008-1.387.002-1.747.178-.24.117-.424.378-.311.393.139.018.454.084.621.311.216.293.208.951.208.951s.125 1.812-.29 2.037c-.284.154-.673-.16-1.509-1.602A13.42 13.42 0 0 1 2.954.716S2.89.564 2.78.483c-.134-.099-.323-.13-.323-.13l-2 .012S.155.374.045.504C-.052.62.038.859.038.859s1.566 3.655 3.34 5.498C5.003 8.047 6.85 7.936 6.85 7.936h.837s.253-.028.381-.167c.12-.128.115-.367.115-.367s-.017-1.12.505-1.285C9.2 5.955 9.86 7.2 10.56 7.68c.529.362.93.283.93.283l1.87-.026s.979-.06.515-.828z" fill="#fff"/></svg>